# xmcd CD database file
#
# Track frame offsets:
#	150
#	24876
#	50053
#	73381
#	87613
#	109693
#	129559
#	146757
#	167293
#	184386
#	198653
#	223517
#	241733
#	265449
#	287351
#	314403
#	334370
#
# Disc length: 4685 seconds
#
# Revision: 0
# Processed by: cddbd v1.5.1PL2 Copyright (c) Steve Scherf et al.
# Submitted via: CDex 1.51
#
DISCID=0b124b11
DTITLE=Ralph Lundsten - Like the wind my longin
DYEAR=2005
DGENRE=New Age
TTITLE0=In the summer of bliss
TTITLE1=The joy of being
TTITLE2=Like the wind my longing
TTITLE3=Midwinter night
TTITLE4=Out in the wide world
TTITLE5=Enchanted forest
TTITLE6=In the land long ago
TTITLE7=Springtime
TTITLE8=Sun saga
TTITLE9=Flowery medow
TTITLE10=Summer longing
TTITLE11=Moon-silvered night
TTITLE12=The region of heavenly peace
TTITLE13=Summer herding
TTITLE14=Legend of joy
TTITLE15=Anticipating winter
TTITLE16=Legend of winter
EXTD=YEAR: 2005
EXTT0=
EXTT1=
EXTT2=
EXTT3=
EXTT4=
EXTT5=
EXTT6=
EXTT7=
EXTT8=
EXTT9=
EXTT10=
EXTT11=
EXTT12=
EXTT13=
EXTT14=
EXTT15=
EXTT16=
PLAYORDER=
